# xmcd CD database file
#
# Track frame offsets:
#	150
#	11126
#	17032
#	28546
#	37794
#	49620
#	64277
#	74729
#	90080
#	101544
#	114172
#	124641
#	141662
#	152619
#	159394
#	172500
#	187915
#	201867
#	215391
#	222118
#	231050
#	241046
#	252870
#	260956
#	276138
#
# Disc length: 3835 seconds
#
# Revision: 0
# Processed by: cddbd v1.5.2PL0 Copyright (c) Steve Scherf et al.
# Submitted via: CDex 1.70beta2
#
DISCID=4d0ef919
DTITLE=Musique Bresilienne - Bresil au Cinema
DYEAR=2009
DGENRE=Salsa
TTITLE0=Arrastoa - Les amants de la mer - Générique
TTITLE1=Arrastoa - Les amants de la mer - Luana
TTITLE2=Arrastoa - Les amants de la mer - Toada do homen so
TTITLE3=Arrastoa - Les amants de la mer - Dalambo
TTITLE4=Arrastoa - Les amants de la mer - Deus e iemanja
TTITLE5=L'homme de Rio - Batucada
TTITLE6=L'homme de Rio - Serenat do Mar
TTITLE7=L'homme de Rio -  Bowling Bresilien
TTITLE8=L'homme de Rio - Choando Sim
TTITLE9=L'homme de Rio -  Theme guitare
TTITLE10=Les Amoureux de fRance - Arrivee a Rio
TTITLE11=Os Bandeirantes - Pelo Amor de Amar
TTITLE12=Os Bandeirantes - Cancao dos Jangadeiros
TTITLE13=Os Bandeirantes - Cancao de Amanhecer
TTITLE14=Os Bandeirantes - Paris a le coeur tendre
TTITLE15=Os Bandeirantes - Na Bahia tanbem tem
TTITLE16=Furia a Bahia pour OSS117 - Furia a Bahia
TTITLE17=Pour un amour lointain - Pour un amour lointain
TTITLE18=Pour un amour lointain - Generique
TTITLE19=Pour un amour lointain - Départ de la troupe
TTITLE20=Pour un amour lointain - Generique fin
TTITLE21=Otalia de Bahia - Dodo Tristesa
TTITLE22=Otalia de Bahia - Marialva
TTITLE23=Otalia de Bahia - O Bahia
TTITLE24=Otalia de Bahia - Dodo
EXTD=YEAR: 2009
EXTT0=
EXTT1=
EXTT2=
EXTT3=
EXTT4=
EXTT5=
EXTT6=
EXTT7=
EXTT8=
EXTT9=
EXTT10=
EXTT11=
EXTT12=
EXTT13=
EXTT14=
EXTT15=
EXTT16=
EXTT17=
EXTT18=
EXTT19=
EXTT20=
EXTT21=
EXTT22=
EXTT23=
EXTT24=
PLAYORDER=
